<svg width="138" height="173" viewBox="0 0 138 173" fill="none" xmlns="http://www.w3.org/2000/svg">
<path fill-rule="evenodd" clip-rule="evenodd" d="M65.3636 80.214C64.8797 79.9287 64.2794 79.9287 63.7955 80.214C63.3076 80.4961 63.005 81.0156 63 81.5798V94.8735C63.0049 95.4438 63.3181 95.9665 63.8182 96.2393C64.3104 96.5239 64.9169 96.5239 65.4091 96.2393L76.4545 89.4103C76.9233 89.1256 77.2096 88.6164 77.2096 88.0673C77.2096 87.5182 76.9233 87.009 76.4545 86.7243L65.3636 80.214Z" stroke="#B0B0B0" stroke-width="2.27273" stroke-linecap="round" stroke-linejoin="round"/>
<rect x="34.7954" y="61.3644" width="65.8636" height="103.663" rx="4.54545" stroke="#B0B0B0" stroke-width="2.27273" stroke-linecap="round" stroke-linejoin="round"/>
<path fill-rule="evenodd" clip-rule="evenodd" d="M88.0453 135.185C88.0453 146.5 78.8875 155.672 67.5908 155.672C56.294 155.672 47.1362 146.5 47.1362 135.185C47.1362 123.871 56.294 114.698 67.5908 114.698C78.8875 114.698 88.0453 123.871 88.0453 135.185V135.185Z" stroke="#B0B0B0" stroke-width="2.27273" stroke-linecap="round" stroke-linejoin="round"/>
<ellipse cx="67.7271" cy="135.185" rx="7.84091" ry="7.85329" stroke="#B0B0B0" stroke-width="2.27273" stroke-linecap="round" stroke-linejoin="round"/>
<rect x="44.2046" y="70.7883" width="47.0455" height="34.5545" rx="2.27273" stroke="#B0B0B0" stroke-width="2.27273" stroke-linecap="round" stroke-linejoin="round"/>
<path fill-rule="evenodd" clip-rule="evenodd" d="M65.3182 80.2578C64.8343 79.9725 64.234 79.9725 63.75 80.2578C63.2622 80.5399 62.9596 81.0594 62.9546 81.6236V94.9173C62.9595 95.4876 63.2727 96.0103 63.7728 96.2831C64.265 96.5677 64.8715 96.5677 65.3637 96.2831L76.4091 89.4541C76.8779 89.1694 77.1642 88.6602 77.1642 88.1111C77.1642 87.562 76.8779 87.0528 76.4091 86.7681L65.3182 80.2578Z" stroke="#B0B0B0" stroke-width="2.27273" stroke-linecap="round" stroke-linejoin="round"/>
<path fill-rule="evenodd" clip-rule="evenodd" d="M60.9091 38.4646C60.9091 40.84 59.4805 42.9815 57.2894 43.8905C55.0983 44.7995 52.5762 44.297 50.8992 42.6174C49.2222 40.9378 48.7206 38.4117 49.6282 36.2172C50.5357 34.0226 52.6738 32.5917 55.0454 32.5917C56.6024 32.5857 58.0974 33.2025 59.1984 34.3052C60.2993 35.4079 60.9152 36.9052 60.9091 38.4646V38.4646Z" stroke="#B0B0B0" stroke-width="2.27273" stroke-linecap="round" stroke-linejoin="round"/>
<path fill-rule="evenodd" clip-rule="evenodd" d="M90.1817 32.5918C90.1909 34.9692 88.7682 37.1176 86.5778 38.0338C84.3875 38.95 81.8617 38.4532 80.18 36.7753C78.4983 35.0975 77.9924 32.5697 78.8987 30.3723C79.8049 28.175 81.9444 26.7416 84.3181 26.7416C87.5477 26.7416 90.1692 29.3571 90.1817 32.5918V32.5918Z" stroke="#B0B0B0" stroke-width="2.27273" stroke-linecap="round" stroke-linejoin="round"/>
<path d="M60.9092 38.4646V14.2446C60.9113 12.9598 61.6945 11.8058 62.8865 11.331L85.8865 2.2257C86.8481 1.8363 87.9407 1.95599 88.7955 2.54439C89.6587 3.12564 90.178 4.09766 90.1819 5.13939V32.5918" stroke="#B0B0B0" stroke-width="2.27273" stroke-linecap="round" stroke-linejoin="round"/>
<path fill-rule="evenodd" clip-rule="evenodd" d="M11.4773 80.2578C11.4772 82.2486 10.2787 84.0428 8.44151 84.8025C6.60432 85.5622 4.49106 85.1373 3.08887 83.7264C1.68669 82.3155 1.27231 80.1969 2.03931 78.3604C2.80631 76.5238 4.60331 75.3318 6.59089 75.341C7.89079 75.341 9.13711 75.8597 10.0541 76.7824C10.9712 77.7052 11.4833 78.9559 11.4773 80.2578V80.2578Z" stroke="#B0B0B0" stroke-width="2.27273" stroke-linecap="round" stroke-linejoin="round"/>
<path d="M11.4773 80.2578V58.1548L18.8409 63.0716" stroke="#B0B0B0" stroke-width="2.27273" stroke-linecap="round" stroke-linejoin="round"/>
<path fill-rule="evenodd" clip-rule="evenodd" d="M123.955 80.4399C123.955 82.1748 122.55 83.5812 120.818 83.5812C119.086 83.5812 117.682 82.1748 117.682 80.4399C117.682 78.705 119.086 77.2986 120.818 77.2986C122.55 77.2986 123.955 78.705 123.955 80.4399V80.4399Z" stroke="#B0B0B0" stroke-width="2.27273" stroke-linecap="round" stroke-linejoin="round"/>
<path d="M123.955 80.4399V66.304L128.659 69.4453" stroke="#B0B0B0" stroke-width="2.27273" stroke-linecap="round" stroke-linejoin="round"/>
<path d="M127.091 103.226V100.858" stroke="#B0B0B0" stroke-width="2.27273" stroke-linecap="round" stroke-linejoin="round"/>
<path d="M132.068 105.297L133.75 103.636" stroke="#B0B0B0" stroke-width="2.27273" stroke-linecap="round" stroke-linejoin="round"/>
<path d="M134.136 110.282H136.5" stroke="#B0B0B0" stroke-width="2.27273" stroke-linecap="round" stroke-linejoin="round"/>
<path d="M132.068 115.29L133.75 116.952" stroke="#B0B0B0" stroke-width="2.27273" stroke-linecap="round" stroke-linejoin="round"/>
<path d="M127.091 117.362V119.706" stroke="#B0B0B0" stroke-width="2.27273" stroke-linecap="round" stroke-linejoin="round"/>
<path d="M122.091 115.29L120.432 116.952" stroke="#B0B0B0" stroke-width="2.27273" stroke-linecap="round" stroke-linejoin="round"/>
<path d="M120.023 110.282H117.682" stroke="#B0B0B0" stroke-width="2.27273" stroke-linecap="round" stroke-linejoin="round"/>
<path d="M122.091 105.297L120.432 103.636" stroke="#B0B0B0" stroke-width="2.27273" stroke-linecap="round" stroke-linejoin="round"/>
<path d="M111.409 44.3148V38.0322" stroke="#B0B0B0" stroke-width="2.27273" stroke-linecap="round" stroke-linejoin="round"/>
<path d="M108.273 41.1735H114.545" stroke="#B0B0B0" stroke-width="2.27273" stroke-linecap="round" stroke-linejoin="round"/>
<path d="M25.1592 44.3148V31.7495" stroke="#B0B0B0" stroke-width="2.27273" stroke-linecap="round" stroke-linejoin="round"/>
<path d="M18.8862 38.0322H31.4317" stroke="#B0B0B0" stroke-width="2.27273" stroke-linecap="round" stroke-linejoin="round"/>
<path d="M5 111.853V105.57" stroke="#B0B0B0" stroke-width="2.27273" stroke-linecap="round" stroke-linejoin="round"/>
<path d="M1.86353 108.712H8.13625" stroke="#B0B0B0" stroke-width="2.27273" stroke-linecap="round" stroke-linejoin="round"/>
</svg>
